# xmcd
#
# Track frame offsets: 
#        150
#        33840
#        67580
#        91273
#        114715
#        139655
#        170478
#        200805
#
# Disc length: 3197 seconds
#
# Revision: 0
# Processed by: cddbd v1.5.1PL0 Copyright (c) Steve Scherf et al.
# Submitted via: ExactAudioCopy v0.95a5
#
DISCID=660c7b08
DTITLE=Leszek Cichoñski&Friends - Blues-Rock Guitar Workshop Live
DYEAR=1995
DGENRE=blues
TTITLE0=I Love Larry
TTITLE1=Spaniel Daniel
TTITLE2=Crossroads
TTITLE3=New Times
TTITLE4=Superstitions
TTITLE5=Little Wing
TTITLE6=Sweet Home Chicago
TTITLE7=Hoochie Coochie Man
EXTD=
EXTT0=
EXTT1=
EXTT2=
EXTT3=
EXTT4=
EXTT5=
EXTT6=
EXTT7=
PLAYORDER=
